<?xml version="1.0" encoding="utf-8"?>
<!DOCTYPE svg PUBLIC "-//W3C//DTD SVG 1.1//EN" "http://www.w3.org/Graphics/SVG/1.1/DTD/svg11.dtd">
<svg version="1.1" id="Layer_1" xmlns="http://www.w3.org/2000/svg" xmlns:xlink="http://www.w3.org/1999/xlink" x="0px" y="0px"
	 width="1000px" height="1000px" viewBox="0 0 1000 1000" enable-background="new 0 0 1000 1000" xml:space="preserve">
<path fill="#424297" d="M1000,500c0,276.185-223.858,500-500,500C223.867,1000,0,776.185,0,500C0,223.866,223.867,0,500,0
	C776.176,0,1000,223.866,1000,500z"/>
<path fill="#FFFFFF" d="M284.401,568.805h-81.146l111.025-137.954v-12.533H178.924v54.576H190
	c5.521-35.772,7.752-41.673,21.361-41.673h72.308L173.023,569.185v12.507h142.016v-58.607h-11.068
	C299.164,561.776,297.33,568.805,284.401,568.805z"/>
<path fill="#FFFFFF" d="M409.957,414.993c-41.31,0-76.701,35.031-76.701,86.686c0,50.863,33.558,83.354,76.701,83.354
	c41.31,0,76.701-34.661,76.701-86.316C486.658,447.819,453.101,414.993,409.957,414.993z M411.068,571.769
	c-25.831,0-52.403-21.775-52.403-71.209c0-49.045,24.014-72.276,50.198-72.276c25.805,0,52.352,22.137,52.352,71.545
	C461.215,548.891,437.244,571.769,411.068,571.769z"/>
<path fill="#FFFFFF" d="M652.507,467.381c0-34.696-16.227-52.388-45.014-52.388c-19.173,0-42.429,10.345-62.704,45.729v-42.405
	h-50.895v14.738h28.019v133.924h-28.019v14.712h77.475v-14.712h-25.84v-79.314c0-21.034,23.997-53.128,51.646-53.128
	c8.493,0,16.21,1.869,22.119,8.122c7.39,7.365,9.612,19.906,9.612,37.986v86.334h-25.84v14.712h77.105v-14.712h-27.665V467.381z"/>
<path fill="#FFFFFF" d="M760.551,414.993c-41.309,0-75.607,36.143-75.607,86.686c0,49.795,30.249,83.354,75.607,83.354
	c31.697,0,54.953-17.331,65.271-49.786h-13.66c-9.939,26.185-27.666,33.558-47.941,33.558c-30.974,0-53.472-23.601-53.851-67.874
	h116.589C828.045,457.406,806.994,414.993,760.551,414.993z M711.094,486.184c3.738-36.159,22.859-57.9,48.717-57.9
	c24.686,0,39.448,20.639,42.016,57.9H711.094z"/>
</svg>
