<?xml version="1.0" encoding="utf-8"?>
<!-- Generator: Adobe Illustrator 19.0.0, SVG Export Plug-In . SVG Version: 6.00 Build 0)  -->
<svg version="1.1" id="Layer_1" xmlns="http://www.w3.org/2000/svg" xmlns:xlink="http://www.w3.org/1999/xlink" x="0px" y="0px"
	 viewBox="-122 114.6 596 367.7" enable-background="new -122 114.6 596 367.7" xml:space="preserve">
<g>
	<g>
		<path fill="#434495" d="M245.7,298.4c0,101.5-82.3,183.9-183.9,183.9C-39.7,482.3-122,400-122,298.4
			c0-101.5,82.3-183.9,183.9-183.9C163.4,114.6,245.7,196.9,245.7,298.4z"/>
		<path fill="#FFFFFF" d="M-17.4,323.8h-29.9l40.8-50.7v-4.6h-49.7v20.1h4.1c2-13.2,2.8-15.3,7.9-15.3h26.6L-58.3,324v4.6h52.2
			v-21.5h-4.1C-11.9,321.2-12.6,323.8-17.4,323.8z"/>
		<path fill="#FFFFFF" d="M28.8,267.2c-15.2,0-28.2,12.9-28.2,31.9c0,18.7,12.3,30.6,28.2,30.6C44,329.7,57,316.9,57,298
			C57,279.3,44.7,267.2,28.8,267.2z M29.2,324.8c-9.5,0-19.2-8-19.2-26.2c0-18,8.8-26.6,18.5-26.6c9.5,0,19.2,8.1,19.2,26.3
			C47.6,316.4,38.8,324.8,29.2,324.8z"/>
		<path fill="#FFFFFF" d="M118,286.5c0-12.8-5.9-19.2-16.6-19.2c-7,0-15.6,3.8-23,16.8v-15.6H59.7v5.4H70v49.2H59.7v5.4h28.5v-5.4
			h-9.5v-29.2c0-7.7,8.8-19.5,19-19.5c3.1,0,5.9,0.7,8.1,3c2.7,2.7,3.5,7.3,3.5,13.9v31.8h-9.5v5.4h28.3v-5.4H118V286.5L118,286.5z"
			/>
		<path fill="#FFFFFF" d="M157.7,267.2c-15.2,0-27.8,13.3-27.8,31.9c0,18.3,11.1,30.6,27.8,30.6c11.7,0,20.2-6.4,24-18.3h-5
			c-3.7,9.6-10.2,12.3-17.6,12.3c-11.4,0-19.7-8.7-19.8-25h42.9C182.5,282.8,174.7,267.2,157.7,267.2z M139.5,293.4
			c1.4-13.3,8.4-21.3,17.9-21.3c9.1,0,14.5,7.6,15.5,21.3H139.5z"/>
	</g>
	<g>
		<path fill="#16ACA7" d="M284,268.4h6.9l14.1,49.2l13.9-49.4h5.5l14,49.4l14.1-49.2h6.6l-17.9,60.3h-5.6l-14-48.3l-14,48.3H302
			L284,268.4z"/>
		<path fill="#16ACA7" d="M379.1,268.1h6.3l22.8,60.2h-6.9l-5.8-15.7h-26.9l-5.8,15.7h-6.6L379.1,268.1z M393.4,306.7l-11.3-30.4
			l-11.4,30.4H393.4z"/>
		<path fill="#16ACA7" d="M413.3,298.7v-0.6c0-17.4,10.9-30.5,26.7-30.5c7.8,0,13,2.2,18.1,6.4l-3.8,5.1c-3.7-3.2-8-5.6-14.4-5.6
			c-11.4,0-19.8,10.2-19.8,24.6v0.4c0,15,8.1,24.8,20.4,24.8c5.1,0,9.8-1.9,12.9-4.3v-16.8h-14.9v-5.7h21.1v25.7
			c-4.6,3.7-11.4,7-19.3,7C423.8,329.1,413.3,316.7,413.3,298.7z"/>
	</g>
</g>
</svg>
